{
  "accessors": [
    {
      "bufferView": 2,
      "componentType": 5126,
      "count": 65532,
      "max": [
        6.030580520629883,
        37.0344123840332,
        58.013755798339844
      ],
      "min": [
        -22.759838104248047,
        -31.160263061523438,
        21.790977478027344
      ],
      "type": "VEC3"
    },
    {
      "bufferView": 2,
      "byteOffset": 786384,
      "componentType": 5126,
      "count": 65532,
      "max": [
        0.9999831914901733,
        0.9955126047134399,
        0.9999933242797852
      ],
      "min": [
        -0.999950110912323,
        -0.999923825263977,
        -0.9999995231628418
      ],
      "type": "VEC3"
    },
    {
      "bufferView": 3,
      "componentType": 5126,
      "count": 65532,
      "max": [
        0.9411764740943909,
        0.929411768913269,
        0.929411768913269,
        1.0
      ],
      "min": [
        0.0117647061124444,
        0.007843137718737125,
        0.007843137718737125,
        1.0
      ],
      "type": "VEC4"
    },
    {
      "bufferView": 1,
      "componentType": 5126,
      "count": 65532,
      "max": [
        0.75,
        1.0
      ],
      "min": [
        0.0,
        0.0
      ],
      "type": "VEC2"
    },
    {
      "bufferView": 0,
      "componentType": 5125,
      "count": 376437,
      "type": "SCALAR"
    },
    {
      "bufferView": 2,
      "byteOffset": 1572768,
      "componentType": 5126,
      "count": 40557,
      "max": [
        6.223962783813477,
        25.060142517089844,
        63.53684616088867
      ],
      "min": [
        -22.759838104248047,
        -31.182247161865234,
        21.791996002197266
      ],
      "type": "VEC3"
    },
    {
      "bufferView": 2,
      "byteOffset": 2059452,
      "componentType": 5126,
      "count": 40557,
      "max": [
        0.9999938011169434,
        0.9995723962783813,
        0.9999993443489075
      ],
      "min": [
        -0.9999861717224121,
        -0.9997340440750122,
        -0.9999827742576599
      ],
      "type": "VEC3"
    },
    {
      "bufferView": 3,
      "byteOffset": 1048512,
      "componentType": 5126,
      "count": 40557,
      "max": [
        0.9411764740943909,
        0.929411768913269,
        0.929411768913269,
        1.0
      ],
      "min": [
        0.0117647061124444,
        0.007843137718737125,
        0.007843137718737125,
        1.0
      ],
      "type": "VEC4"
    },
    {
      "bufferView": 1,
      "byteOffset": 524256,
      "componentType": 5126,
      "count": 40557,
      "max": [
        0.5,
        1.0
      ],
      "min": [
        0.037109375,
        0.078125
      ],
      "type": "VEC2"
    },
    {
      "bufferView": 0,
      "byteOffset": 1505748,
      "componentType": 5125,
      "count": 213387,
      "type": "SCALAR"
    },
    {
      "bufferView": 2,
      "byteOffset": 2546136,
      "componentType": 5126,
      "count": 65532,
      "max": [
        24.995046615600586,
        18.09855079650879,
        26.943254470825195
      ],
      "min": [
        -38.42286682128906,
        -6.023470878601074,
        -11.720399856567383
      ],
      "type": "VEC3"
    },
    {
      "bufferView": 2,
      "byteOffset": 3332520,
      "componentType": 5126,
      "count": 65532,
      "max": [
        0.9949117302894592,
        0.9999642968177795,
        0.9998366832733154
      ],
      "min": [
        -0.9999638795852661,
        -0.99989914894104,
        -0.9999203681945801
      ],
      "type": "VEC3"
    },
    {
      "bufferView": 3,
      "byteOffset": 1697424,
      "componentType": 5126,
      "count": 65532,
      "max": [
        0.9882352948188782,
        0.9882352948188782,
        0.9882352948188782,
        1.0
      ],
      "min": [
        0.019607843831181526,
        0.019607843831181526,
        0.019607843831181526,
        1.0
      ],
      "type": "VEC4"
    },
    {
      "bufferView": 1,
      "byteOffset": 848712,
      "componentType": 5126,
      "count": 65532,
      "max": [
        0.75,
        1.0
      ],
      "min": [
        0.0,
        0.0
      ],
      "type": "VEC2"
    },
    {
      "bufferView": 0,
      "byteOffset": 2359296,
      "componentType": 5125,
      "count": 379725,
      "type": "SCALAR"
    },
    {
      "bufferView": 2,
      "byteOffset": 4118904,
      "componentType": 5126,
      "count": 39632,
      "max": [
        20.73619842529297,
        18.09855079650879,
        26.954418182373047
      ],
      "min": [
        -38.42286682128906,
        -6.177828311920166,
        -11.720399856567383
      ],
      "type": "VEC3"
    },
    {
      "bufferView": 2,
      "byteOffset": 4594488,
      "componentType": 5126,
      "count": 39632,
      "max": [
        0.9999634027481079,
        0.9994666576385498,
        0.9999305009841919
      ],
      "min": [
        -0.9999638795852661,
        -0.9999972581863403,
        -0.9994235038757324
      ],
      "type": "VEC3"
    },
    {
      "bufferView": 3,
      "byteOffset": 2745936,
      "componentType": 5126,
      "count": 39632,
      "max": [
        0.9882352948188782,
        0.9882352948188782,
        0.9882352948188782,
        1.0
      ],
      "min": [
        0.019607843831181526,
        0.019607843831181526,
        0.019607843831181526,
        1.0
      ],
      "type": "VEC4"
    },
    {
      "bufferView": 1,
      "byteOffset": 1372968,
      "componentType": 5126,
      "count": 39632,
      "max": [
        0.5,
        1.0
      ],
      "min": [
        0.001953125,
        0.044921875
      ],
      "type": "VEC2"
    },
    {
      "bufferView": 0,
      "byteOffset": 3878196,
      "componentType": 5125,
      "count": 210099,
      "type": "SCALAR"
    }
  ],
  "asset": {
    "extras": {
      "author": "jiri_petteri (https://sketchfab.com/jiri_petteri)",
      "license": "CC-BY-4.0 (http://creativecommons.org/licenses/by/4.0/)",
      "source": "https://sketchfab.com/3d-models/nick-d-egdekok-df25acc827db408d93c51be56be7bb27",
      "title": "nick d egdekok"
    },
    "generator": "Sketchfab-12.66.0",
    "version": "2.0"
  },
  "bufferViews": [
    {
      "buffer": 0,
      "byteLength": 4718592,
      "name": "floatBufferViews",
      "target": 34963
    },
    {
      "buffer": 0,
      "byteLength": 1690024,
      "byteOffset": 4718592,
      "byteStride": 8,
      "name": "floatBufferViews",
      "target": 34962
    },
    {
      "buffer": 0,
      "byteLength": 5070072,
      "byteOffset": 6408616,
      "byteStride": 12,
      "name": "floatBufferViews",
      "target": 34962
    },
    {
      "buffer": 0,
      "byteLength": 3380048,
      "byteOffset": 11478688,
      "byteStride": 16,
      "name": "floatBufferViews",
      "target": 34962
    }
  ],
  "buffers": [
    {
      "byteLength": 14858736,
      "uri": "scene.bin"
    }
  ],
  "materials": [
    {
      "doubleSided": true,
      "name": "material_0",
      "pbrMetallicRoughness": {
        "baseColorFactor": [
          0.5,
          0.5,
          0.5,
          1.0
        ],
        "metallicFactor": 0.0,
        "roughnessFactor": 0.6
      }
    }
  ],
  "meshes": [
    {
      "name": "Object_0",
      "primitives": [
        {
          "attributes": {
            "COLOR_0": 2,
            "NORMAL": 1,
            "POSITION": 0,
            "TEXCOORD_0": 3
          },
          "indices": 4,
          "material": 0,
          "mode": 4
        }
      ]
    },
    {
      "name": "Object_1",
      "primitives": [
        {
          "attributes": {
            "COLOR_0": 7,
            "NORMAL": 6,
            "POSITION": 5,
            "TEXCOORD_0": 8
          },
          "indices": 9,
          "material": 0,
          "mode": 4
        }
      ]
    },
    {
      "name": "Object_2",
      "primitives": [
        {
          "attributes": {
            "COLOR_0": 12,
            "NORMAL": 11,
            "POSITION": 10,
            "TEXCOORD_0": 13
          },
          "indices": 14,
          "material": 0,
          "mode": 4
        }
      ]
    },
    {
      "name": "Object_3",
      "primitives": [
        {
          "attributes": {
            "COLOR_0": 17,
            "NORMAL": 16,
            "POSITION": 15,
            "TEXCOORD_0": 18
          },
          "indices": 19,
          "material": 0,
          "mode": 4
        }
      ]
    }
  ],
  "nodes": [
    {
      "children": [
        1
      ],
      "matrix": [
        1.0,
        0.0,
        0.0,
        0.0,
        0.0,
        2.220446049250313e-16,
        -1.0,
        0.0,
        0.0,
        1.0,
        2.220446049250313e-16,
        0.0,
        0.0,
        0.0,
        0.0,
        1.0
      ],
      "name": "Sketchfab_model"
    },
    {
      "children": [
        2,
        3,
        4,
        5
      ],
      "name": "7778962034f4412f90451b5ae7c49fb6.obj.cleaner"
    },
    {
      "mesh": 0,
      "name": "Object_2"
    },
    {
      "mesh": 1,
      "name": "Object_3"
    },
    {
      "mesh": 2,
      "name": "Object_4"
    },
    {
      "mesh": 3,
      "name": "Object_5"
    }
  ],
  "scene": 0,
  "scenes": [
    {
      "name": "Sketchfab_Scene",
      "nodes": [
        0
      ]
    }
  ]
}
